<?xml version="1.0" encoding="utf-8"?>
<!-- Generator: Adobe Illustrator 15.1.0, SVG Export Plug-In . SVG Version: 6.00 Build 0)  -->
<!DOCTYPE svg PUBLIC "-//W3C//DTD SVG 1.1//EN" "http://www.w3.org/Graphics/SVG/1.1/DTD/svg11.dtd">
<svg version="1.1" id="instagram" xmlns="http://www.w3.org/2000/svg" xmlns:xlink="http://www.w3.org/1999/xlink" x="0px" y="0px"
	 width="396px" height="390.993px" viewBox="0 92.503 396 390.993" enable-background="new 0 92.503 396 390.993"
	 xml:space="preserve">
<path fill="#F7F7F7" d="M350.408,92.503H45.592c-23.739,0-42.986,19.257-42.986,43.013v304.971
	c0,23.757,19.247,43.009,42.986,43.009h304.816c23.738,0,42.983-19.252,42.983-43.009V135.516
	C393.391,111.761,374.144,92.503,350.408,92.503z M197.785,212.93c41.318,0,74.816,33.513,74.816,74.855
	c0,41.338-33.498,74.852-74.816,74.852s-74.815-33.514-74.815-74.852S156.463,212.93,197.785,212.93z M347.668,422.115
	c0,8.639-6.993,15.636-15.628,15.636H63.71c-8.634,0-15.629-7.001-15.629-15.636V258.297h33.946
	c-2.351,9.375-3.607,19.179-3.607,29.284c0,66.28,53.699,120.008,119.944,120.008c66.248,0,119.944-53.728,119.944-120.008
	c0-10.105-1.256-19.909-3.606-29.284h32.968L347.668,422.115L347.668,422.115z M348.668,196.731c0,8.638-6.997,15.636-15.63,15.636
	h-44.379c-8.636,0-15.627-7.003-15.627-15.636v-44.406c0-8.638,6.997-15.635,15.627-15.635h44.379c8.637,0,15.63,7,15.63,15.635
	V196.731z"/>
</svg>
