<?xml version="1.0" encoding="utf-8"?>
<!-- Generator: Adobe Illustrator 15.1.0, SVG Export Plug-In . SVG Version: 6.00 Build 0)  -->
<!DOCTYPE svg PUBLIC "-//W3C//DTD SVG 1.1//EN" "http://www.w3.org/Graphics/SVG/1.1/DTD/svg11.dtd">
<svg version="1.1" id="mail" xmlns="http://www.w3.org/2000/svg" xmlns:xlink="http://www.w3.org/1999/xlink" x="0px" y="0px"
	 width="396px" height="391.993px" viewBox="0 91.503 396 391.993" enable-background="new 0 91.503 396 391.993"
	 xml:space="preserve">
<path fill="#F7F7F7" d="M198.5,91.503C90.254,91.503,2.503,179.253,2.503,287.5S90.254,483.496,198.5,483.496
	c108.247,0,195.996-87.749,195.996-195.996S306.747,91.503,198.5,91.503z M100.501,189.501h195.997c3.498,0,6.895,0.752,10.01,2.167
	L198.5,317.675L90.494,191.666C93.609,190.249,97.005,189.498,100.501,189.501L100.501,189.501z M76.002,361V214.001
	c0-0.512,0.02-1.024,0.057-1.531l71.838,83.809L76.85,367.332C76.294,365.286,76.007,363.163,76.002,361L76.002,361z
	 M296.498,385.498H100.501c-2.164,0-4.288-0.29-6.333-0.846l69.715-69.717l34.616,40.387l34.612-40.381l69.713,69.713
	C300.786,385.208,298.664,385.498,296.498,385.498L296.498,385.498z M320.998,361c0,2.163-0.29,4.286-0.846,6.332l-71.045-71.053
	l71.84-83.811c0.032,0.507,0.057,1.019,0.057,1.531L320.998,361L320.998,361z"/>
</svg>
