<?xml version="1.0" encoding="utf-8"?>
<!-- Generator: Adobe Illustrator 15.1.0, SVG Export Plug-In . SVG Version: 6.00 Build 0)  -->
<!DOCTYPE svg PUBLIC "-//W3C//DTD SVG 1.1//EN" "http://www.w3.org/Graphics/SVG/1.1/DTD/svg11.dtd">
<svg version="1.1" id="facebook-square" xmlns="http://www.w3.org/2000/svg" xmlns:xlink="http://www.w3.org/1999/xlink" x="0px"
	 y="0px" width="396px" height="384.993px" viewBox="0 95.503 396 384.993" enable-background="new 0 95.503 396 384.993"
	 xml:space="preserve">
<path fill="#F7F7F7" d="M326.334,95.503H69.675c-35.293,0-64.172,28.878-64.172,64.176v256.645
	c0,35.319,28.878,64.172,64.168,64.172H326.33c35.301,0.004,64.166-28.853,64.166-64.172V159.683
	C390.496,124.39,361.631,95.507,326.334,95.503L326.334,95.503z M332.82,288h-62.633v168.435H198V288h-34.786v-55.104H198v-35.789
	c0-48.627,20.975-77.546,78.154-77.546h65.889v59.62h-53.814c-15.977-0.027-17.955,8.328-17.955,23.877l-0.09,29.833h72.191
	l-9.551,55.107V288H332.82z"/>
</svg>
