<?xml version="1.0" encoding="utf-8"?>
<!-- Generator: Adobe Illustrator 15.1.0, SVG Export Plug-In . SVG Version: 6.00 Build 0)  -->
<!DOCTYPE svg PUBLIC "-//W3C//DTD SVG 1.1//EN" "http://www.w3.org/Graphics/SVG/1.1/DTD/svg11.dtd">
<svg version="1.1" id="soundcloud" xmlns="http://www.w3.org/2000/svg" xmlns:xlink="http://www.w3.org/1999/xlink" x="0px" y="0px"
	 width="396px" height="168.874px" viewBox="0 203.562 396 168.874" enable-background="new 0 203.562 396 168.874"
	 xml:space="preserve">
<path fill="#F7F7F7" d="M69.845,285.636c-1.392,0-2.503,1.105-2.589,2.573l-3.202,39.49l3.202,41.525
	c0.09,1.461,1.198,2.567,2.589,2.567c1.371,0,2.478-1.106,2.584-2.563l3.634-41.529l-3.634-39.505
	C72.328,286.733,71.219,285.636,69.845,285.636z M100.962,245.538c-1.745,0-3.17,1.426-3.249,3.246
	c0,0.004-2.813,78.938-2.813,78.938l2.82,41.266c0.075,1.806,1.497,3.23,3.242,3.23c1.728,0,3.158-1.426,3.245-3.251l3.179-41.245
	l-3.182-78.938C104.112,246.957,102.695,245.538,100.962,245.538z M54.471,282.884c-1.193,0-2.168,0.966-2.266,2.246l-3.394,42.573
	l3.394,41.188c0.095,1.272,1.068,2.234,2.266,2.234c1.175,0,2.154-0.962,2.26-2.234l3.858-41.188l-3.858-42.581
	C56.62,283.846,55.65,282.884,54.471,282.884z M85.334,260.549c-1.552,0-2.837,1.286-2.907,2.92l-3.014,64.247l3.014,41.521
	c0.078,1.621,1.355,2.902,2.907,2.902c1.548,0,2.828-1.287,2.918-2.91v0.012l3.411-41.523l-3.414-64.247
	C88.163,261.834,86.878,260.549,85.334,260.549z M39.221,284.352c-1.013,0-1.822,0.801-1.928,1.906
	c0,0.003-3.595,41.432-3.595,41.432l3.595,39.92c0.102,1.107,0.911,1.91,1.928,1.91c1.002,0,1.815-0.799,1.93-1.899l4.082-39.931
	l-4.078-41.432C41.033,285.146,40.223,284.352,39.221,284.352z M24.097,291.193c-0.817,0-1.493,0.662-1.607,1.567
	c0,0.017-3.783,34.921-3.783,34.921l3.783,34.146c0.11,0.915,0.786,1.579,1.607,1.579c0.806,0,1.465-0.646,1.599-1.568l4.305-34.154
	l-4.302-34.922C25.565,291.836,24.906,291.193,24.097,291.193z M9.863,304.562c-0.805,0-1.441,0.625-1.548,1.525l-2.812,21.594
	l2.816,21.228c0.106,0.899,0.738,1.524,1.548,1.524c0.782,0,1.411-0.621,1.54-1.519l3.336-21.233l-3.336-21.601
	C11.282,305.188,10.642,304.562,9.863,304.562z M197.085,214.774c-2.845,0-5.182,2.357-5.221,5.256l-2.137,107.744l2.141,39.104
	c0.036,2.857,2.373,5.21,5.217,5.21c2.839,0,5.169-2.353,5.21-5.254v0.048l2.325-39.107l-2.325-107.751
	C202.254,217.135,199.924,214.774,197.085,214.774z M343.151,276.771c-6.49,0-12.686,1.327-18.318,3.712
	c-3.772-43.107-39.563-76.921-83.214-76.921c-10.682,0-21.092,2.126-30.291,5.716c-3.573,1.399-4.521,2.841-4.559,5.623v151.801
	c0.041,2.924,2.283,5.364,5.117,5.649c0.119,0.01,130.41,0.084,131.257,0.084c26.151,0,47.353-21.412,47.353-47.836
	C390.496,298.188,369.303,276.771,343.151,276.771z M180.923,224.053c-2.66,0-4.852,2.204-4.887,4.919l-1.838,98.746
	c0,0.069,1.838,39.716,1.838,39.716c0.039,2.687,2.239,4.892,4.887,4.892c2.647,0,4.835-2.21,4.879-4.918l2.062-39.646
	l-2.062-98.792C185.764,226.265,183.571,224.053,180.923,224.053z M116.708,238.624c-1.941,0-3.511,1.572-3.575,3.579
	c0,0.004-2.624,85.529-2.624,85.529l2.624,40.832c0.064,1.994,1.626,3.561,3.571,3.561c1.924,0,3.496-1.564,3.572-3.574
	l2.954-40.818l-2.95-85.538C120.2,240.191,118.633,238.624,116.708,238.624z M132.576,235.398c-2.125,0-3.844,1.717-3.898,3.921
	l-2.427,88.417l2.431,40.584c0.056,2.182,1.771,3.897,3.895,3.897c2.121,0,3.821-1.717,3.897-3.905v-0.006l2.733-40.566
	l-2.733-88.421C136.405,237.124,134.688,235.398,132.576,235.398z M164.679,240.152c-2.502,0-4.51,2.016-4.561,4.589l-2.036,83.013
	l2.036,39.945c0.051,2.539,2.054,4.554,4.561,4.554c2.502,0,4.494-2.008,4.558-4.582v0.033l2.286-39.944l-2.283-83.026
	C169.172,242.164,167.181,240.152,164.679,240.152z M148.563,237.339c-2.317,0-4.184,1.866-4.231,4.247l-2.23,86.164l2.235,40.188
	c0.05,2.357,1.913,4.233,4.229,4.233c2.303,0,4.166-1.873,4.227-4.256v0.035l2.508-40.208l-2.511-86.157
	C152.729,239.202,150.866,237.339,148.563,237.339z"/>
</svg>
