<?xml version="1.0" encoding="utf-8"?>
<!-- Generator: Adobe Illustrator 15.1.0, SVG Export Plug-In . SVG Version: 6.00 Build 0)  -->
<!DOCTYPE svg PUBLIC "-//W3C//DTD SVG 1.1//EN" "http://www.w3.org/Graphics/SVG/1.1/DTD/svg11.dtd">
<svg version="1.1" id="twitter" xmlns="http://www.w3.org/2000/svg" xmlns:xlink="http://www.w3.org/1999/xlink" x="0px" y="0px"
	 width="396px" height="320.667px" viewBox="0 126.959 396 320.667" enable-background="new 0 126.959 396 320.667"
	 xml:space="preserve">
<path fill="#F7F7F7" d="M394.998,164.919c-14.433,6.436-29.938,10.787-46.219,12.744c16.61-10.019,29.373-25.881,35.39-44.785
	c-15.552,9.278-32.771,16.011-51.106,19.646c-14.678-15.734-35.597-25.565-58.74-25.565c-44.446,0-80.481,36.24-80.481,80.945
	c0,6.344,0.708,12.521,2.081,18.449c-66.884-3.383-126.183-35.604-165.877-84.581c-6.925,11.96-10.895,25.865-10.895,40.699
	c0,28.086,14.209,52.866,35.804,67.381c-13.193-0.418-25.605-4.058-36.448-10.123c-0.007,0.34-0.007,0.679-0.007,1.021
	c0,39.221,27.742,71.936,64.558,79.374c-6.757,1.854-13.861,2.844-21.202,2.844c-5.187,0-10.227-0.508-15.142-1.45
	c10.243,32.153,39.962,55.562,75.177,56.215c-27.542,21.711-62.245,34.649-99.949,34.649c-6.496,0-12.9-0.385-19.196-1.129
	c35.615,22.968,77.919,36.373,123.361,36.373c148.025,0,228.974-123.353,228.974-230.324c0-3.51-0.079-6.996-0.236-10.474
	C370.562,195.407,384.209,181.146,394.998,164.919z"/>
</svg>
