<?xml version="1.0" encoding="utf-8"?>
<!-- Generator: Adobe Illustrator 15.1.0, SVG Export Plug-In . SVG Version: 6.00 Build 0)  -->
<!DOCTYPE svg PUBLIC "-//W3C//DTD SVG 1.1//EN" "http://www.w3.org/Graphics/SVG/1.1/DTD/svg11.dtd">
<svg version="1.1" id="youtube" xmlns="http://www.w3.org/2000/svg" xmlns:xlink="http://www.w3.org/1999/xlink" x="0px" y="0px"
	 width="396px" height="276.118px" viewBox="0 149.941 396 276.118" enable-background="new 0 149.941 396 276.118"
	 xml:space="preserve">
<path fill="#F7F7F7" d="M385.006,194.501c-3.954-21.167-21.578-36.962-41.817-38.913c-48.335-3.1-96.85-5.616-145.271-5.647
	c-48.423-0.027-96.754,2.437-145.095,5.489c-20.316,1.966-37.936,17.68-41.879,38.925c-4.492,30.596-6.734,61.489-6.734,92.372
	c0,30.882,2.246,61.771,6.734,92.369c3.94,21.245,21.56,38.845,41.879,40.791c48.354,3.056,96.655,6.172,145.095,6.172
	c48.403,0,96.956-2.721,145.271-5.848c20.239-1.966,37.863-20.086,41.817-41.242c4.533-30.545,6.785-61.398,6.785-92.25
	C391.791,255.886,389.529,225.049,385.006,194.501z M154.061,342.37V229.752l104.884,56.311L154.061,342.37z"/>
</svg>
